<?xml version="1.0" standalone="no"?>
<!DOCTYPE svg PUBLIC "-//W3C//DTD SVG 20010904//EN"
 "http://www.w3.org/TR/2001/REC-SVG-20010904/DTD/svg10.dtd">
<svg version="1.0" xmlns="http://www.w3.org/2000/svg"
 width="823.000000pt" height="823.000000pt" viewBox="0 0 823.000000 823.000000"
 preserveAspectRatio="xMidYMid meet">
<metadata>
Created by potrace 1.14, written by Peter Selinger 2001-2017
</metadata>
<g transform="translate(0.000000,823.000000) scale(0.100000,-0.100000)"
fill="#000000" stroke="none">
<path d="M3831 6960 c-18 -5 -19 -14 -16 -122 1 -65 0 -118 -4 -119 -3 0 -24
-2 -47 -5 -30 -4 -41 -2 -41 8 -1 26 -15 154 -22 193 -7 39 -7 40 -46 37 -22
-2 -41 -5 -43 -6 -2 -2 2 -43 8 -90 7 -48 10 -89 8 -92 -3 -2 -20 35 -39 84
-35 87 -35 87 -69 86 -55 -2 -61 -4 -57 -11 3 -5 8 -37 11 -73 4 -36 9 -78 11
-95 3 -16 7 -51 9 -76 l5 -45 -63 -31 c-64 -32 -64 -32 -70 -10 -8 29 -7 37 2
35 4 -1 18 2 30 6 18 6 22 13 18 29 -3 12 -6 31 -6 42 0 18 -5 20 -40 17 -39
-4 -40 -3 -41 27 -1 17 -2 36 -3 43 -1 6 13 15 31 20 19 5 30 13 28 21 -2 6
-7 25 -9 41 -3 16 -7 30 -10 33 -2 3 -41 -4 -85 -14 -78 -17 -81 -19 -76 -43
2 -14 7 -36 9 -50 5 -24 9 -45 22 -102 3 -15 6 -30 6 -33 0 -2 8 -35 17 -72
22 -87 22 -85 -15 -116 l-31 -26 -63 187 c-34 103 -66 191 -71 196 -7 8 -106
-19 -123 -34 -4 -5 -3 -23 3 -42 5 -18 13 -45 16 -60 12 -65 16 -82 21 -90 3
-4 3 -8 0 -8 -3 0 -24 39 -47 88 -23 48 -43 89 -45 91 -7 7 -113 -29 -120 -40
-5 -9 131 -425 145 -441 9 -11 81 13 81 27 0 6 -18 62 -40 125 -22 62 -39 115
-37 116 2 2 29 -51 61 -117 52 -106 61 -119 80 -113 12 3 24 9 29 13 8 8 -1
60 -28 174 -22 87 -10 73 28 -33 34 -97 48 -124 60 -122 14 2 15 -1 7 -23 -17
-45 -31 -67 -84 -131 -29 -35 -70 -94 -91 -133 -34 -59 -47 -73 -92 -95 -34
-16 -53 -32 -53 -43 0 -46 -22 -94 -49 -108 -26 -13 -34 -12 -80 4 l-51 19
-82 -57 -82 -57 -4 -58 c-4 -81 -25 -98 -108 -92 l-60 5 -68 -68 -68 -68 7
-59 c6 -54 4 -62 -18 -82 -18 -17 -39 -24 -83 -27 l-59 -4 -442 441 -441 441
-218 -217 -218 -217 535 -535 c294 -294 535 -538 537 -543 8 -25 -30 -71 -68
-82 -22 -7 -44 -17 -49 -23 -5 -6 -20 -52 -34 -102 l-25 -91 34 -43 c19 -24
34 -49 34 -56 0 -30 -21 -64 -49 -78 -53 -28 -59 -40 -66 -141 l-7 -96 41 -35
c34 -29 41 -42 41 -71 0 -30 -7 -42 -41 -71 l-41 -35 6 -66 c3 -36 6 -81 6
-98 0 -28 7 -38 50 -65 69 -45 75 -79 27 -142 l-35 -46 14 -53 c8 -28 17 -62
20 -74 11 -55 23 -68 73 -88 41 -15 53 -26 61 -51 10 -28 7 -39 -15 -81 l-27
-49 42 -91 42 -90 54 -12 c74 -17 97 -49 77 -106 -22 -65 -20 -77 37 -158 52
-73 57 -77 95 -78 22 -1 46 0 54 1 8 1 25 -11 38 -26 21 -25 23 -34 17 -85
l-6 -58 69 -70 70 -70 54 8 c46 8 58 6 81 -11 23 -16 28 -27 28 -61 0 -69 8
-80 90 -136 l78 -53 52 17 c81 27 104 10 130 -92 7 -29 17 -44 33 -49 12 -4
51 -21 87 -39 l66 -31 48 27 c42 22 53 25 82 16 27 -8 36 -19 51 -60 20 -55
24 -57 141 -88 l73 -20 47 34 c64 47 97 42 136 -19 15 -24 31 -46 35 -48 4 -3
39 -8 77 -11 38 -3 80 -8 92 -11 19 -4 33 5 65 41 55 61 90 62 142 3 36 -42
38 -43 94 -39 31 2 65 4 76 6 11 1 31 3 45 4 19 1 33 14 55 51 17 29 36 50 46
50 10 0 24 2 31 5 8 3 35 -11 60 -30 l46 -36 84 22 c109 29 110 29 132 87 16
40 26 52 52 60 28 8 39 6 81 -18 l48 -27 93 44 c63 30 92 49 92 61 0 40 22 91
46 107 23 15 29 15 81 0 l56 -16 83 57 c46 31 83 59 82 63 0 3 0 27 1 53 1 62
34 99 83 92 18 -3 45 -6 59 -8 21 -3 39 10 94 66 l68 69 -6 58 c-6 50 -4 60
18 85 13 15 32 27 42 26 79 -9 87 -4 146 83 l57 82 -17 52 c-26 82 -8 107 90
129 36 9 40 14 79 98 l41 89 -27 50 c-23 44 -25 53 -15 82 10 26 22 36 61 50
26 9 50 21 53 25 3 4 16 49 30 100 l24 93 -35 42 c-24 30 -33 50 -30 66 3 13
5 29 5 34 1 6 24 24 51 40 39 23 50 35 50 55 1 14 3 59 6 100 l6 75 -41 38
c-57 53 -56 89 1 138 36 32 41 41 40 75 -2 22 -4 48 -6 59 -3 11 -5 39 -5 61
-1 39 -5 44 -50 74 -69 43 -75 74 -27 138 l35 48 -26 97 -26 96 -50 18 c-39
14 -53 25 -64 51 -12 29 -11 36 11 81 14 27 27 69 29 94 3 31 13 57 31 77 14
18 29 42 32 56 8 33 -3 89 -21 104 -17 14 -20 46 -5 55 6 3 10 27 10 53 0 38
-6 55 -31 85 -17 20 -27 42 -24 48 5 6 15 -2 26 -20 22 -36 18 -35 55 -17 16
8 52 24 79 36 28 12 58 27 68 32 35 18 15 -2 -67 -67 l-84 -67 31 -54 c18 -29
35 -54 39 -54 4 0 86 38 182 84 96 46 192 92 214 101 l40 18 -27 43 c-14 24
-28 44 -31 44 -3 0 -64 -29 -135 -65 -71 -35 -130 -63 -131 -62 -1 1 50 38
113 82 63 43 117 84 119 90 3 6 -6 30 -18 52 l-24 41 -49 -21 c-28 -12 -87
-41 -133 -64 -130 -67 -125 -62 77 77 69 47 78 57 67 70 -8 8 -20 27 -28 43
l-14 27 -174 -129 -174 -130 -13 31 c-7 16 -10 35 -7 40 4 5 -4 23 -16 40 -24
33 -25 31 39 75 22 16 24 16 41 -6 18 -25 28 -23 74 13 18 15 18 16 2 41 -17
25 -17 28 0 46 28 31 52 33 73 8 l19 -23 36 28 c41 30 41 27 -23 109 l-45 56
-30 -22 c-17 -12 -37 -27 -44 -34 -8 -7 -30 -26 -50 -41 -21 -15 -42 -32 -49
-38 -6 -6 -54 -44 -107 -84 -86 -65 -94 -74 -85 -93 10 -17 9 -19 -6 -14 -9 4
-33 7 -53 7 l-37 0 3 56 c4 52 5 54 21 39 17 -14 21 -13 58 22 77 72 236 218
275 253 l39 35 -38 37 -38 37 -66 -62 c-37 -34 -107 -99 -155 -143 -49 -45
-92 -85 -96 -89 -4 -4 -12 5 -18 21 -5 16 -17 41 -26 57 -19 33 -28 19 151
213 l41 44 21 -22 21 -21 31 32 c17 17 31 34 31 37 0 7 -137 136 -155 146 -7
4 -24 -6 -42 -27 l-30 -34 22 -21 23 -22 -48 -51 c-26 -29 -72 -78 -101 -110
l-54 -58 -33 17 c-32 16 -33 17 -17 40 28 43 75 125 75 130 0 3 8 18 19 32 10
15 29 45 41 67 12 22 31 54 41 72 l20 31 -60 46 -60 46 -80 -82 c-140 -145
-250 -263 -250 -268 0 -3 18 -18 41 -34 l42 -29 28 32 c23 26 32 30 43 21 23
-19 -28 -87 -76 -101 -49 -15 -97 -57 -103 -90 -2 -14 9 -65 25 -115 34 -106
34 -104 11 -104 -34 0 -61 41 -64 99 -3 54 -4 55 -63 98 -93 67 -98 69 -156
51 -44 -15 -53 -15 -79 -1 -36 17 -45 48 -34 111 27 162 -4 250 -116 322 l-48
31 74 215 c41 119 74 221 74 229 0 7 -11 16 -24 19 -13 3 -31 8 -38 11 -11 4
-22 -16 -43 -80 -16 -47 -32 -85 -36 -85 -5 0 -7 6 -4 13 2 6 6 49 9 94 l4 82
-36 14 c-20 9 -40 12 -44 9 -6 -6 -63 -163 -73 -202 -3 -8 -23 -66 -45 -129
-22 -63 -40 -115 -40 -117 0 -9 73 -25 81 -17 5 5 23 47 39 94 l29 84 -6 -85
c-3 -47 -6 -93 -5 -103 1 -16 -5 -17 -46 -11 -26 4 -86 8 -134 8 l-87 1 -41
44 c-40 42 -40 43 -13 36 15 -4 37 -9 48 -10 11 -2 36 -8 56 -13 l36 -9 10 44
c11 47 11 48 -48 66 -14 5 -15 11 -5 49 13 51 22 59 52 47 21 -7 24 -5 34 33
12 43 7 54 -25 60 -21 4 -23 15 -11 65 7 30 9 31 38 22 18 -5 33 -8 34 -6 9 9
22 83 16 89 -10 10 -154 40 -160 33 -3 -3 -7 -11 -8 -18 -1 -7 -14 -61 -28
-122 -15 -60 -36 -150 -47 -200 -29 -128 -26 -122 -55 -94 -24 22 -25 27 -18
99 3 41 7 77 7 80 3 14 -16 50 -25 50 -6 0 1 11 15 24 46 43 49 171 4 201 -21
14 -174 42 -181 34 -2 -2 -7 -26 -10 -54 -8 -62 -16 -122 -21 -155 -13 -90
-19 -136 -17 -141 4 -17 -92 8 -160 42 -73 37 -95 52 -65 47 8 -2 12 11 11 42
0 42 -2 44 -30 45 -28 0 -29 2 -32 48 -3 42 -1 48 15 47 47 -5 51 -1 51 44 l0
44 -69 4 c-38 2 -77 1 -88 -2z m534 -133 c-3 -7 -7 -25 -9 -41 -6 -34 -11 -40
-25 -31 -6 3 -9 17 -6 31 16 78 15 76 30 64 8 -6 12 -17 10 -23z m-31 -193
c-3 -92 -3 -94 -20 -87 -13 5 -15 16 -10 57 3 28 6 57 6 64 0 8 6 12 13 9 7
-2 12 -20 11 -43z m1429 -446 c-60 -98 -85 -128 -98 -118 -11 9 -3 23 42 71
55 58 72 72 56 47z"/>
<path d="M2593 6657 c-35 -17 -63 -37 -63 -44 0 -7 11 -34 25 -61 43 -84 165
-344 165 -353 0 -5 2 -9 4 -9 3 0 159 71 164 75 5 4 -28 74 -38 80 -6 4 -16 3
-23 -3 -34 -26 -47 -22 -68 25 -20 45 -20 47 -3 60 10 7 23 13 29 13 7 0 4 16
-9 44 -20 44 -21 44 -48 30 -15 -8 -29 -14 -31 -14 -6 0 -39 82 -35 84 2 1 15
8 30 15 22 11 25 17 17 35 -5 11 -12 29 -15 39 -9 24 -29 21 -101 -16z"/>
<path d="M5182 6672 c-36 -19 -68 -71 -134 -218 -44 -97 -51 -129 -38 -169 21
-61 107 -92 169 -61 26 14 43 41 98 154 95 195 96 249 10 291 -53 26 -63 26
-105 3z m73 -93 c-14 -43 -128 -274 -138 -281 -7 -4 -13 -1 -15 6 -3 12 16 54
115 264 17 36 49 46 38 11z"/>
<path d="M5454 6533 c-9 -21 -38 -85 -65 -141 -27 -57 -49 -105 -49 -108 0 -2
-16 -36 -35 -75 -19 -39 -33 -75 -30 -79 11 -17 128 -81 135 -74 4 5 59 74
120 154 62 80 126 161 142 182 l28 36 -37 23 c-21 13 -41 27 -44 31 -6 9 -144
-167 -156 -197 -3 -8 -9 -15 -14 -15 -5 0 19 54 53 121 33 66 57 124 52 128
-5 4 -26 18 -47 30 l-37 23 -16 -39z"/>
<path d="M2322 6514 c-63 -32 -81 -87 -51 -154 11 -23 40 -77 66 -119 100
-164 109 -173 173 -177 40 -2 80 28 80 60 0 15 3 17 11 9 9 -9 19 -8 40 3 16
8 29 16 29 19 0 3 -117 202 -126 214 -5 6 -64 -23 -64 -31 0 -5 -6 -8 -14 -8
-8 0 -18 -4 -21 -10 -8 -13 23 -72 35 -65 11 7 49 -47 52 -75 6 -53 -23 -22
-97 102 -86 142 -91 153 -77 162 5 3 23 -15 41 -39 l32 -45 39 27 c22 14 40
31 40 37 0 6 -17 30 -38 54 -44 52 -95 64 -150 36z"/>
<path d="M2051 6328 c-28 -20 -39 -34 -33 -42 5 -6 70 -92 144 -192 l135 -181
59 44 c76 57 81 62 69 71 -6 4 -20 19 -32 34 l-21 28 -24 -20 -25 -19 -79 107
c-43 59 -95 128 -115 154 l-37 47 -41 -31z"/>
<path d="M1841 6152 c-28 -26 -51 -51 -51 -55 0 -5 13 -25 29 -45 15 -20 77
-104 136 -187 59 -82 109 -152 111 -154 6 -7 73 54 73 67 1 7 -9 26 -21 42
-17 23 -19 33 -10 42 9 9 18 6 40 -15 15 -15 33 -27 38 -27 6 0 25 15 42 33
l33 34 -68 59 c-37 32 -70 61 -73 64 -3 3 -34 30 -70 60 -36 30 -80 69 -98 85
-54 48 -55 48 -111 -3z m208 -229 c-12 -14 -13 -13 -84 87 l-38 55 66 -64 c51
-50 64 -68 56 -78z"/>
<path d="M6699 5157 c-25 -12 -67 -32 -95 -44 -27 -12 -80 -36 -119 -54 -38
-17 -89 -39 -112 -50 l-42 -18 35 -78 c20 -43 37 -79 39 -81 3 -3 85 28 85 33
0 1 -6 18 -14 36 l-14 34 46 21 47 22 14 -27 c7 -14 15 -27 16 -29 1 -1 20 6
42 15 39 18 39 18 27 50 -13 31 -13 31 27 47 48 19 49 19 49 4 0 -7 6 -21 13
-30 12 -15 16 -15 55 2 l41 19 -32 75 c-20 48 -38 75 -47 75 -8 0 -35 -10 -61
-22z"/>
<path d="M793 5038 c-29 -6 -52 -20 -73 -45 -30 -33 -32 -41 -28 -91 5 -55 5
-56 97 -141 l93 -86 -21 -19 c-24 -22 -18 -25 -114 64 -26 25 -64 52 -84 62
-62 28 -129 6 -163 -54 -19 -34 -22 -50 -17 -107 13 -153 116 -351 213 -412
91 -56 230 -55 348 2 88 43 118 37 314 -58 98 -48 122 -56 122 -43 0 10 3 38
6 63 l7 45 -125 60 c-68 33 -139 63 -158 67 -68 15 -139 6 -212 -26 -76 -33
-160 -44 -208 -27 -39 13 -92 69 -121 126 -55 112 -90 262 -60 262 4 0 41 -32
82 -71 89 -85 127 -104 173 -89 68 22 136 111 136 178 0 29 -36 69 -149 164
-61 52 -52 69 31 63 218 -17 340 -91 353 -215 5 -44 -18 -143 -41 -177 -23
-36 2 -27 51 18 l44 40 15 -30 c12 -22 39 -41 112 -76 53 -25 97 -45 99 -43 1
2 14 24 28 49 21 35 24 48 15 57 -7 7 -15 12 -20 12 -4 0 -36 14 -72 31 -46
22 -68 39 -76 59 -7 16 -18 31 -26 34 -9 3 -14 20 -14 43 0 52 -41 135 -89
181 -68 64 -190 114 -316 128 -95 11 -110 11 -152 2z"/>
<path d="M6648 4857 c-154 -51 -217 -76 -218 -87 0 -33 26 -87 40 -84 8 1 55
16 104 33 50 17 91 31 93 31 2 0 -1 -9 -7 -19 -6 -12 -41 -30 -92 -46 -46 -15
-87 -31 -92 -36 -8 -7 8 -63 24 -82 10 -12 182 52 203 76 10 11 15 27 12 36
-4 10 2 8 17 -6 21 -19 28 -21 67 -12 59 13 98 34 117 65 15 23 15 30 1 87
-19 78 -34 117 -44 116 -5 0 -106 -33 -225 -72z m192 -68 c0 -11 -60 -39 -85
-39 -28 0 -15 27 18 38 43 14 67 14 67 1z"/>
<path d="M6949 4596 c-4 -4 -121 -30 -189 -42 -14 -3 -33 -7 -42 -10 -9 -3
-27 -7 -40 -9 -13 -2 -55 -12 -94 -21 l-71 -16 10 -47 c6 -25 12 -47 13 -49 1
-2 37 4 79 13 43 9 79 14 81 12 3 -2 -28 -18 -68 -35 -66 -27 -73 -33 -74 -59
0 -15 3 -40 8 -54 l9 -26 120 59 119 59 114 -6 114 -7 -12 49 c-12 47 -13 48
-52 49 -104 3 -120 5 -99 13 11 5 40 11 65 15 24 3 48 10 53 15 5 5 6 30 3 55
-6 35 -12 46 -25 46 -10 0 -20 -2 -22 -4z"/>
<path d="M6957 4254 c-1 -1 -33 -5 -70 -9 -37 -3 -76 -8 -85 -10 -9 -1 -48 -6
-87 -10 -81 -7 -139 -16 -143 -20 -4 -3 18 -168 23 -173 2 -2 23 0 47 5 42 8
43 9 40 46 -3 35 -2 37 25 37 15 0 38 3 50 6 19 5 23 1 28 -29 6 -32 10 -35
33 -30 15 2 35 5 45 6 14 1 17 8 14 34 -4 28 -2 33 17 34 74 4 71 6 74 -29 3
-32 5 -33 40 -28 20 3 43 5 49 6 9 0 11 11 7 38 -6 36 -9 61 -12 110 -2 21 -6
23 -47 21 -25 -2 -46 -4 -48 -5z"/>
<path d="M6685 3980 l-90 -5 1 -27 c1 -16 2 -34 3 -42 1 -12 19 -14 91 -13
125 3 120 -3 -30 -38 -68 -16 -66 -14 -64 -56 1 -23 6 -44 12 -48 10 -6 43 -6
319 0 l153 3 -2 44 -1 44 -94 -4 c-51 -2 -93 0 -93 5 0 4 5 7 12 7 7 0 49 11
94 25 l81 25 -1 43 -1 43 -150 -1 c-82 0 -190 -2 -240 -5z"/>
<path d="M1270 3576 c-4 -4 -36 -10 -115 -22 -27 -4 -96 -16 -115 -19 -8 -2
-36 -7 -62 -11 -41 -5 -48 -10 -48 -29 0 -31 5 -33 58 -23 109 20 97 26 106
-51 13 -113 87 -160 181 -115 55 26 66 76 42 204 -8 44 -17 66 -28 68 -8 1
-17 1 -19 -2z m1 -68 c0 -7 2 -24 5 -38 12 -70 11 -81 -6 -103 -33 -41 -102
-30 -121 19 -17 46 -21 114 -7 114 25 1 93 12 97 16 10 9 31 3 32 -8z"/>
<path d="M6792 3320 c-55 -25 -72 -56 -104 -183 -27 -112 -27 -144 -1 -214 13
-35 13 -45 1 -69 -25 -51 -33 -51 -220 -10 -252 56 -237 57 -275 -6 -17 -29
-30 -54 -29 -56 4 -4 408 -93 446 -98 80 -11 164 39 196 115 20 48 21 127 0
175 -15 36 -15 43 5 127 11 48 26 92 32 97 14 12 225 -33 243 -52 16 -15 -22
-175 -43 -183 -9 -4 -45 1 -80 9 -60 15 -63 15 -48 -2 8 -9 33 -26 55 -36 35
-17 40 -22 34 -44 -13 -49 -13 -76 -3 -130 30 -154 16 -256 -53 -395 -49 -98
-99 -165 -187 -247 -65 -62 -193 -154 -222 -160 -24 -5 -10 32 45 117 67 104
105 184 119 250 18 90 -25 164 -116 198 -20 7 -227 54 -382 87 -55 11 -107 23
-115 25 -11 4 -24 -12 -43 -51 -15 -30 -25 -59 -22 -63 2 -5 24 -11 47 -15 24
-4 95 -18 158 -32 63 -13 147 -31 185 -40 103 -22 144 -36 157 -51 18 -22 -14
-107 -78 -209 -76 -122 -95 -159 -98 -202 -6 -84 56 -147 144 -146 40 0 122
47 230 129 257 197 407 501 369 744 -22 140 -22 139 10 184 42 59 83 230 69
284 -10 41 -56 98 -85 107 -46 13 -235 56 -265 60 -21 2 -52 -3 -76 -14z"/>
<path d="M1245 3199 c-55 -17 -130 -39 -167 -50 -38 -11 -68 -25 -68 -32 0 -6
14 -60 31 -118 24 -83 35 -106 48 -104 25 3 24 27 -2 114 l-25 80 59 20 c32
11 60 17 62 13 3 -4 8 -20 12 -37 5 -16 9 -32 10 -35 1 -3 7 -24 14 -47 8 -31
17 -43 31 -43 26 0 28 16 9 74 -10 28 -19 64 -21 80 -3 27 1 31 42 43 25 7 50
11 56 9 6 -2 21 -39 33 -82 24 -81 37 -100 57 -83 9 7 10 19 3 42 -6 18 -12
39 -14 47 -34 122 -41 140 -55 139 -8 0 -60 -14 -115 -30z"/>
<path d="M1435 2936 c-18 -13 -18 -15 2 -62 l21 -48 -66 -28 c-84 -35 -92 -39
-175 -77 -61 -28 -67 -33 -57 -51 6 -11 12 -20 14 -20 2 0 66 27 143 59 76 33
144 61 151 63 8 2 21 -15 31 -42 20 -48 34 -58 55 -41 12 10 12 16 1 39 -7 15
-21 45 -30 67 -10 22 -24 54 -31 72 -8 17 -14 35 -14 40 0 4 -7 16 -14 25 -11
15 -15 16 -31 4z"/>
<path d="M1423 2547 c-109 -58 -153 -87 -153 -100 0 -31 26 -29 92 6 34 20
106 58 158 85 67 36 95 56 95 69 0 34 -40 22 -192 -60z"/>
<path d="M1633 2513 c-17 -6 -16 -28 0 -45 14 -13 37 -52 37 -61 0 -3 -61 -44
-135 -92 -74 -48 -135 -90 -135 -94 0 -4 6 -15 13 -24 11 -16 15 -16 47 7 19
13 81 54 138 91 l103 66 19 -23 c11 -13 19 -26 20 -30 1 -28 60 -44 60 -16 0
11 -105 181 -130 210 -15 19 -17 20 -37 11z"/>
<path d="M1826 2225 c-26 -19 -203 -167 -259 -216 -11 -9 1 -49 15 -49 5 0 34
20 63 45 l53 46 39 -46 c49 -59 77 -77 119 -77 42 0 79 23 104 64 27 45 13
100 -42 163 -10 11 -30 34 -45 52 -25 29 -30 31 -47 18z m89 -146 c12 -22 12
-29 -1 -55 -32 -61 -76 -61 -133 2 -22 25 -41 50 -41 54 0 5 23 27 52 49 l51
41 29 -32 c15 -18 35 -45 43 -59z"/>
<path d="M5860 2070 c-41 -44 -76 -83 -78 -88 -2 -8 249 -254 266 -259 10 -4
20 4 100 89 69 73 73 79 57 95 -16 15 -21 12 -84 -54 l-67 -70 -46 42 -46 42
59 62 c63 66 66 72 46 90 -11 8 -28 -4 -77 -54 l-62 -65 -39 37 c-41 40 -47
57 -26 70 6 5 34 32 61 60 42 44 47 54 36 68 -7 8 -15 15 -19 15 -3 -1 -40
-37 -81 -80z"/>
<path d="M1942 1847 c-99 -99 -131 -138 -126 -150 3 -9 12 -17 20 -17 16 0
264 250 264 266 0 6 -6 16 -13 22 -10 9 -44 -19 -145 -121z"/>
<path d="M5696 1898 c-13 -21 -24 -95 -26 -178 l-1 -35 -48 54 c-34 38 -54 52
-65 48 -9 -4 -16 -12 -16 -18 0 -12 38 -67 73 -104 10 -11 49 -57 85 -102 63
-78 92 -97 107 -72 4 5 -14 37 -39 69 -25 32 -46 61 -46 65 0 4 12 4 28 1 15
-3 54 -8 87 -11 33 -3 67 -8 76 -11 16 -4 68 30 59 39 -5 6 -52 13 -135 22
-108 11 -126 16 -121 33 3 10 8 60 12 112 3 52 8 98 11 103 11 19 -28 4 -41
-15z"/>
<path d="M2094 1773 c-43 -53 -96 -117 -116 -142 -21 -25 -38 -48 -37 -51 1
-9 177 -150 187 -150 5 0 13 8 16 17 7 17 -3 27 -91 95 -23 18 -43 36 -43 39
0 3 16 27 36 53 l35 47 42 -33 c23 -18 53 -43 67 -55 30 -28 36 -28 50 -3 6
11 7 20 3 20 -4 0 -24 15 -43 33 -19 18 -47 42 -62 53 l-27 21 42 47 42 47 38
-35 c71 -67 102 -87 115 -74 7 7 12 15 12 20 0 9 -166 148 -178 148 -5 0 -44
-43 -88 -97z"/>
<path d="M5348 1643 l-97 -65 36 -57 c122 -191 169 -261 174 -261 5 0 183 113
197 125 5 5 -11 35 -19 35 -5 0 -43 -22 -85 -49 l-77 -49 -34 49 c-19 27 -31
54 -28 58 3 5 34 26 70 47 40 23 65 45 65 55 0 31 -24 26 -92 -18 -36 -24 -69
-43 -72 -43 -4 0 -66 87 -66 94 0 2 36 27 80 56 77 51 80 54 64 71 -10 11 -18
19 -18 18 -1 0 -45 -30 -98 -66z"/>
<path d="M2403 1607 c-176 -278 -166 -258 -146 -272 23 -17 25 -15 69 55 l36
59 40 -22 39 -22 -4 -84 c-3 -73 -1 -87 15 -103 11 -11 22 -17 25 -15 4 5 9
63 12 150 1 23 5 27 32 27 41 0 63 13 88 54 34 55 28 93 -22 140 -24 23 -66
53 -94 68 l-50 28 -40 -63z m119 -38 c26 -17 48 -34 49 -38 0 -3 2 -15 4 -25
5 -25 -23 -73 -45 -79 -20 -5 -70 14 -110 43 l-29 20 32 55 c18 30 36 55 41
55 5 0 31 -14 58 -31z"/>
<path d="M5018 1461 c-43 -20 -80 -40 -84 -43 -3 -4 21 -62 53 -130 33 -68 68
-142 78 -165 10 -24 25 -43 32 -43 26 0 170 75 187 97 39 52 15 138 -45 163
-24 10 -26 15 -21 55 4 39 1 48 -26 75 -41 40 -77 39 -174 -9z m137 -27 c10
-10 15 -29 13 -48 -3 -27 -11 -35 -66 -63 l-63 -32 -9 24 c-5 14 -17 39 -25
55 l-15 30 52 25 c62 29 91 31 113 9z m91 -180 c9 -49 3 -57 -65 -93 l-61 -32
-29 63 -29 62 60 27 c77 34 114 26 124 -27z"/>
<path d="M2739 1458 c-7 -13 -42 -91 -79 -174 -60 -136 -65 -152 -50 -162 23
-14 31 -6 60 58 32 73 31 73 74 55 43 -18 43 -18 50 -115 4 -55 10 -78 23 -87
31 -24 35 -14 28 76 l-7 88 32 6 c69 14 109 101 76 166 -12 22 -38 40 -101 71
-47 22 -87 40 -90 40 -2 0 -10 -10 -16 -22z m149 -97 c28 -24 28 -51 1 -85
-25 -32 -57 -33 -121 -3 l-47 22 19 40 c11 22 19 45 20 51 0 5 5 15 11 21 13
13 80 -13 117 -46z"/>
<path d="M4694 1333 c-44 -14 -83 -29 -88 -33 -7 -7 10 -75 33 -135 5 -11 23
-66 41 -122 26 -81 37 -103 51 -103 29 0 31 15 9 79 -26 77 -26 77 11 90 48
16 51 15 115 -44 56 -52 104 -71 104 -42 0 7 -27 39 -61 70 -56 53 -59 58 -44
74 56 55 25 160 -53 180 -33 9 -53 6 -118 -14z m129 -55 c20 -24 22 -71 3 -87
-7 -6 -38 -20 -69 -30 l-57 -20 -20 66 c-11 36 -19 67 -18 68 2 0 26 8 53 17
57 18 83 15 108 -14z"/>
<path d="M3050 1237 c-18 -62 -43 -145 -55 -184 l-23 -73 102 -31 c55 -16 109
-32 118 -35 10 -3 19 3 23 16 4 12 5 23 3 24 -1 2 -40 13 -86 26 -45 13 -85
27 -88 31 -2 5 2 33 11 62 l16 54 67 -19 c92 -27 106 -27 110 -2 2 17 -5 22
-45 32 -26 7 -52 14 -58 16 -5 1 -22 6 -36 10 l-27 8 14 46 c8 26 16 52 18 58
3 8 30 4 87 -13 86 -24 109 -24 109 1 0 11 -28 24 -87 41 -49 15 -100 30 -114
35 -27 8 -27 8 -59 -103z"/>
<path d="M4470 1276 c-3 -2 -23 -7 -45 -10 -22 -4 -66 -11 -99 -18 l-58 -11 6
-41 c3 -23 8 -52 11 -66 3 -14 10 -52 15 -85 18 -104 33 -170 40 -178 3 -4 31
-2 61 3 30 6 67 13 82 15 74 10 87 16 87 41 0 20 -4 23 -22 19 -33 -8 -168
-33 -169 -31 -6 10 -24 118 -20 120 3 2 22 7 41 10 19 3 51 10 70 14 19 5 40
9 45 10 6 1 10 10 10 20 0 18 -31 21 -105 8 -77 -13 -73 -16 -85 46 l-12 58
36 6 c120 21 146 29 146 49 0 18 -24 32 -35 21z"/>
<path d="M4136 1178 c-8 -29 -27 -98 -42 -153 -15 -55 -30 -103 -33 -107 -3
-4 -31 59 -62 139 -55 145 -77 179 -100 156 -8 -8 2 -42 36 -129 25 -66 57
-146 69 -179 23 -57 26 -60 57 -60 38 0 30 -19 98 230 22 77 37 143 34 147 -2
5 -13 8 -23 8 -14 0 -22 -13 -34 -52z"/>
<path d="M3495 1040 c-14 -23 21 -39 96 -45 55 -5 79 -3 84 5 8 13 -7 33 -27
36 -85 12 -147 14 -153 4z"/>
</g>
</svg>
